<svg xmlns="http://www.w3.org/2000/svg" viewBox="0 0 720 440" role="img" aria-label="Focus First layout sample"><rect x="0" y="0" width="720" height="440" fill="#f3ede3" rx="0"/><rect x="18" y="15" width="684" height="407" fill="#f8f8f5" rx="16"/><rect x="18" y="15" width="684" height="71" fill="#fff" rx="14"/><text x="36" y="46" font-family="Arial,sans-serif" font-size="17" fill="#96652d" font-weight="700">MASA OS</text><text x="36" y="69" font-family="Arial,sans-serif" font-size="11" fill="#242f34" font-weight="700">LAYOUT / Focus First</text><rect x="36" y="94" width="142" height="7" fill="#96652d" rx="3"/><rect x="191" y="94" width="95" height="7" fill="#242f34" rx="3"/><rect x="298" y="94" width="85" height="7" fill="#242f34" rx="3"/><rect x="36" y="119" width="647" height="118" fill="#fff" rx="9"/><rect x="47" y="130" width="37" height="7" fill="#96652d" rx="3"/><text x="47" y="149" font-family="Arial,sans-serif" font-size="15" fill="#242f34" font-weight="700">FOCUS</text><rect x="48" y="161" width="90" height="6" fill="#242f34" rx="3"/><rect x="48" y="179" width="107" height="6" fill="#242f34" rx="3"/><rect x="48" y="197" width="124" height="6" fill="#242f34" rx="3"/><rect x="36" y="248" width="647" height="56" fill="#fff" rx="9"/><rect x="47" y="259" width="37" height="7" fill="#96652d" rx="3"/><text x="47" y="278" font-family="Arial,sans-serif" font-size="14" fill="#242f34" font-weight="700">OFFER</text><rect x="36" y="316" width="647" height="40" fill="#fff" rx="9"/><rect x="47" y="327" width="37" height="7" fill="#96652d" rx="3"/><text x="47" y="346" font-family="Arial,sans-serif" font-size="10" fill="#242f34" font-weight="700">FLOW</text><rect x="36" y="366" width="647" height="38" fill="#fff" rx="9"/><rect x="47" y="377" width="37" height="7" fill="#96652d" rx="3"/><text x="47" y="396" font-family="Arial,sans-serif" font-size="9.5" fill="#242f34" font-weight="700">OUTPUT</text></svg>