<svg xmlns="http://www.w3.org/2000/svg" viewBox="0 0 720 440" role="img" aria-label="glass dashboard preview"><rect x="0" y="0" width="720" height="440" rx="0" fill="#e9ecfb" opacity="1"/><rect x="18" y="18" width="684" height="404" rx="24" fill="#ffffff" opacity="1"/><rect x="18" y="18" width="132" height="404" rx="24" fill="#e9ecfb" opacity="1"/><rect x="34" y="37" width="37" height="8" rx="2" fill="#6677c5" opacity="1"/><text x="34" y="69" font-family="Arial,Helvetica,sans-serif" font-size="21" font-weight="700" fill="#243153">MASA</text><text x="34" y="89" font-family="Arial,Helvetica,sans-serif" font-size="10" font-weight="400" fill="#5f6986">OS / HOME</text><rect x="33" y="124" width="101" height="28" rx="12" fill="#6677c5" opacity="0.8"/><rect x="44" y="135" width="48" height="5" rx="2" fill="#e9ecfb" opacity="0.6"/><rect x="33" y="166" width="101" height="28" rx="12" fill="#ffffff" opacity="0.95"/><rect x="44" y="177" width="70" height="5" rx="2" fill="#5f6986" opacity="0.6"/><rect x="33" y="208" width="101" height="28" rx="12" fill="#ffffff" opacity="0.95"/><rect x="44" y="219" width="48" height="5" rx="2" fill="#5f6986" opacity="0.6"/><rect x="33" y="250" width="101" height="28" rx="12" fill="#ffffff" opacity="0.95"/><rect x="44" y="261" width="70" height="5" rx="2" fill="#5f6986" opacity="0.6"/><text x="178" y="52" font-family="Arial,Helvetica,sans-serif" font-size="12" font-weight="700" fill="#5f6986">FLOW COCKPIT</text><text x="178" y="89" font-family="Arial,Helvetica,sans-serif" font-size="27" font-weight="700" fill="#243153">Your next move.</text><rect x="178" y="112" width="492" height="112" rx="24" fill="#e9ecfb" opacity="1"/><text x="197" y="140" font-family="Arial,Helvetica,sans-serif" font-size="11" font-weight="700" fill="#6677c5">TODAY / PRIORITY</text><text x="197" y="172" font-family="Arial,Helvetica,sans-serif" font-size="17" font-weight="700" fill="#243153">Make one meaningful move</text><rect x="197" y="187" width="135" height="20" rx="6" fill="#6677c5" opacity="1"/><rect x="178" y="245" width="232" height="146" rx="24" fill="#ffffff" opacity="1"/><rect x="426" y="245" width="244" height="146" rx="24" fill="#ffffff" opacity="1"/><rect x="178" y="245" width="232" height="146" rx="24" fill="none" opacity="1"/><rect x="190" y="257" width="208" height="2" rx="1" fill="#6677c5" opacity="0.4"/><rect x="439" y="257" width="215" height="2" rx="1" fill="#6677c5" opacity="0.4"/><text x="198" y="284" font-family="Arial,Helvetica,sans-serif" font-size="12" font-weight="700" fill="#5f6986">PROJECT FLOW</text><text x="198" y="330" font-family="Arial,Helvetica,sans-serif" font-size="35" font-weight="700" fill="#243153">03</text><text x="442" y="284" font-family="Arial,Helvetica,sans-serif" font-size="12" font-weight="700" fill="#5f6986">QUICK ACTION</text><rect x="444" y="305" width="175" height="8" rx="3" fill="#6677c5" opacity="0.82"/><rect x="444" y="325" width="150" height="8" rx="3" fill="#5f6986" opacity="0.2"/><rect x="444" y="345" width="125" height="8" rx="3" fill="#5f6986" opacity="0.2"/><text x="198" y="365" font-family="Arial,Helvetica,sans-serif" font-size="11" font-weight="400" fill="#5f6986">CAPTURE    /    BUILD</text></svg>